<svg viewBox="0 0 16 16" width="16px" height="16px" role="presentation" xmlns="http://www.w3.org/2000/svg" >
<path stroke="red"  stroke-width="1" fill="red" d="M 10.6 10 l 0.1 0.5 a 11 11 0 0 1 0 2.7 c -0.1 0.4 -0.2 0.9 -0.4 1.2 c -0.3 0.4 -0.6 0.6 -1.2 0.6 c -0.5 0 -0.8 -0.4 -1 -0.7 c -0.2 -0.3 -0.4 -0.8 -0.5 -1.2 l 0 0 c -0.6 -1.4 -1.3 -3.3 -3.3 -4.7 c -0.3 -0.2 -0.6 -0.4 -0.9 -0.5 c -0.7 -0.3 -1.3 -1.1 -1.2 -1.9 l 0.2 -1.2 a 2 2 0 0 1 1.4 -1.6 l 5 -1.4 a 3.5 3.5 0 0 1 4.4 2.7 l 0.5 2.4 A 2.5 2.5 0 0 1 11.1 10 h -0.5 Z m 1.5 -5.2 a 2.5 2.5 0 0 0 -3.1 -1.9 L 4 4.2 a 1 1 0 0 0 -0.7 0.8 l -0.2 1.2 c -0.1 0.3 0.2 0.7 0.6 0.8 c 0.3 0.1 0.7 0.3 1 0.6 c 2.3 1.5 3.1 3.7 3.7 5.1 l 0 0 c 0.2 0.5 0.3 0.8 0.5 1.1 A 0.7 0.7 0 0 0 9 14 c 0.1 0 0.3 -0.1 0.3 -0.2 c 0.1 -0.2 0.2 -0.5 0.3 -0.8 a 10.1 10.1 0 0 0 -0.1 -3.1 l 0 -0.2 l 0 -0.1 V 9.6 A 0.5 0.5 0 0 1 10 9 h 1.1 a 1.5 1.5 0 0 0 1.5 -1.8 l -0.5 -2.4 Z"></path>
 </svg>